<svg width="335" height="271" viewBox="0 0 335 271" fill="none" xmlns="http://www.w3.org/2000/svg">
<g clip-path="url(#clip0_14_454)">
<path opacity="0.1" d="M172.257 270.115C255.834 270.115 323.587 209.648 323.587 135.057C323.587 60.4673 255.834 0 172.257 0C88.6801 0 20.9275 60.4673 20.9275 135.057C20.9275 209.648 88.6801 270.115 172.257 270.115Z" fill="#272925"/>
<path opacity="0.1" d="M55.7982 212.792C86.6146 212.792 111.596 208.92 111.596 204.143C111.596 199.367 86.6146 195.495 55.7982 195.495C24.9817 195.495 0 199.367 0 204.143C0 208.92 24.9817 212.792 55.7982 212.792Z" fill="#272925"/>
<path opacity="0.1" d="M82.6171 253.995C94.6032 253.995 104.32 251.988 104.32 249.512C104.32 247.036 94.6032 245.029 82.6171 245.029C70.6309 245.029 60.9142 247.036 60.9142 249.512C60.9142 251.988 70.6309 253.995 82.6171 253.995Z" fill="#272925"/>
<path opacity="0.1" d="M230.914 236.746C242.9 236.746 252.616 234.739 252.616 232.263C252.616 229.787 242.9 227.78 230.914 227.78C218.927 227.78 209.211 229.787 209.211 232.263C209.211 234.739 218.927 236.746 230.914 236.746Z" fill="#272925"/>
<path opacity="0.1" d="M157.27 232.983C176.761 232.983 192.562 230.306 192.562 227.004C192.562 223.702 176.761 221.026 157.27 221.026C137.778 221.026 121.977 223.702 121.977 227.004C121.977 230.306 137.778 232.983 157.27 232.983Z" fill="#272925"/>
<path opacity="0.1" d="M261.259 208.938C301.913 208.938 334.87 203.776 334.87 197.409C334.87 191.041 301.913 185.879 261.259 185.879C220.604 185.879 187.647 191.041 187.647 197.409C187.647 203.776 220.604 208.938 261.259 208.938Z" fill="#272925"/>
<path d="M15.2569 177.286C13.6033 180.502 12.831 184.1 13.0185 187.712C13.206 191.324 14.3465 194.822 16.3242 197.85C16.973 198.823 17.5699 199.524 18.0468 199.709C20.3338 200.607 24.9145 202.817 24.9145 202.817L35.9443 198.482C35.9443 198.482 37.7351 189.01 39.4285 180.877C40.5834 175.329 41.6993 170.408 42.1568 169.545C43.2987 167.42 42.1568 144.287 42.1568 144.287C42.1568 144.287 31.1269 143.547 28.0937 152.05L26.7668 154.645L15.2569 177.286Z" fill="#A8A8A8"/>
<path opacity="0.1" d="M29.9006 179.842C36.6062 187.527 39.435 180.88 39.435 180.88C40.5899 175.333 41.7058 170.411 42.1633 169.548C43.3052 167.424 42.1633 144.29 42.1633 144.29C42.1633 144.29 31.1334 143.55 28.1002 152.053L26.7733 154.648C25.9234 161.451 25.0832 174.311 29.9006 179.842Z" fill="white"/>
<path d="M31.3734 201.263L70.3024 196.766L77.2479 151.064L71.9958 139.194C69.7768 134.139 66.7042 129.503 62.9123 125.491C60.2684 122.704 57.073 120.024 53.7121 118.678C53.2529 118.493 52.784 118.333 52.3075 118.198C51.7597 118.032 51.1804 117.997 50.6167 118.097C50.0529 118.196 49.5207 118.428 49.0634 118.772C44.2621 122.175 42.546 136.644 41.9913 143.609C41.7631 146.471 41.3764 149.318 40.8331 152.138L31.3734 201.263Z" fill="#A8A8A8"/>
<path opacity="0.1" d="M57.2904 150.571L49.1802 170.522C53.4299 167.414 59.7267 150.49 59.7267 150.49L65.3682 169.785L60.8719 149.448C61.5301 145.032 61.7215 140.558 61.4428 136.102C61.086 130.996 56.2945 122.801 53.6927 118.675C53.2334 118.49 52.7645 118.329 52.288 118.195C51.7403 118.028 51.1609 117.994 50.5972 118.093C50.0335 118.193 49.5013 118.425 49.0439 118.769C51.0877 122.873 56.1971 133.134 57.7543 136.183C59.7299 140.024 57.2904 150.571 57.2904 150.571Z" fill="white"/>
<path d="M63.9116 202.817H85.0338C85.9027 202.817 86.7625 202.64 87.561 202.298C88.3595 201.955 89.08 201.454 89.6787 200.824C90.2774 200.195 90.7418 199.45 91.0436 198.635C91.3454 197.82 91.4784 196.953 91.4344 196.085C90.9672 187.028 89.7831 170.879 86.9673 160.627C85.4458 155.096 83.6778 152.193 82.0558 150.762C81.2951 150.028 80.3131 149.566 79.2626 149.448C78.4657 149.379 77.6683 149.573 76.9917 150C73.0696 153.76 68.489 173.545 68.489 173.545L63.9116 202.817Z" fill="#A8A8A8"/>
<path opacity="0.1" d="M83.4117 185.269C84.2811 187.68 84.625 190.46 83.4117 193.169L78.7045 195.495C78.7045 195.495 66.0526 190.132 67.5903 179.141C67.5903 179.141 68.0055 176.87 72.3623 177.046C74.8126 177.164 77.172 178.009 79.1399 179.474C81.1078 180.939 82.5949 182.956 83.4117 185.269Z" fill="white"/>
<path opacity="0.1" d="M78.3833 156.378C78.2374 152.524 80.3298 151.187 82.0589 150.762C81.2983 150.028 80.3162 149.566 79.2657 149.448C78.0622 150.455 77.2092 151.818 76.8294 153.341L72.4175 174.846C72.4175 174.846 78.6299 162.837 78.3833 156.378Z" fill="white"/>
<path d="M58.3545 173.383L68.8134 187.689L70.6268 199.498L63.9051 202.817L54.215 204.958C53.2818 205.165 52.3222 205.227 51.37 205.143L24.9275 202.817L28.5252 194.476L40.95 177.033L58.3545 173.383Z" fill="#A8A8A8"/>
<path opacity="0.1" d="M54.3059 168.471C54.3059 168.471 61.4428 168.961 58.7632 181.224C56.0836 193.486 28.5122 194.469 28.5122 194.469C28.5122 194.469 34.371 184.088 43.3831 176.65C44.3952 175.816 45.3717 174.947 46.3027 174.019C48.3757 171.946 52.34 168.303 54.3059 168.471Z" fill="white"/>
<path opacity="0.1" d="M60.726 177.717C60.726 177.717 70.3966 186.518 69.485 200.062L60.726 177.717Z" fill="black"/>
<path opacity="0.1" d="M76.995 150C76.995 150 66.8475 163.495 65.7089 184.26L76.995 150Z" fill="black"/>
<path opacity="0.1" d="M42.1665 144.28C42.1665 144.28 47.078 166.583 34.8154 183.394L42.1665 144.28Z" fill="black"/>
<path d="M131.622 226.881H184.546C185.057 226.878 185.56 226.743 186.004 226.489C186.447 226.235 186.818 225.87 187.079 225.43C187.341 224.99 187.484 224.49 187.494 223.979C187.505 223.467 187.384 222.962 187.141 222.511L160.692 173.37C160.439 172.899 160.062 172.505 159.603 172.231C159.144 171.957 158.619 171.812 158.084 171.812C157.549 171.812 157.024 171.957 156.565 172.231C156.106 172.505 155.729 172.899 155.476 173.37L129.014 222.511C128.771 222.963 128.649 223.47 128.661 223.982C128.672 224.495 128.816 224.996 129.079 225.436C129.342 225.876 129.714 226.241 130.16 226.494C130.606 226.747 131.109 226.881 131.622 226.881ZM161.451 217.902H154.717V211.17H161.451V217.902ZM161.451 206.68H154.717V193.214H161.451V206.68Z" fill="#464353"/>
<path opacity="0.1" d="M131.622 226.881H184.546C185.057 226.878 185.56 226.743 186.004 226.489C186.447 226.235 186.818 225.87 187.079 225.43C187.341 224.99 187.484 224.49 187.494 223.979C187.505 223.467 187.384 222.962 187.141 222.511L160.692 173.37C160.439 172.899 160.062 172.505 159.603 172.231C159.144 171.957 158.619 171.812 158.084 171.812C157.549 171.812 157.024 171.957 156.565 172.231C156.106 172.505 155.729 172.899 155.476 173.37L129.014 222.511C128.771 222.963 128.649 223.47 128.661 223.982C128.672 224.495 128.816 224.996 129.079 225.436C129.342 225.876 129.714 226.241 130.16 226.494C130.606 226.747 131.109 226.881 131.622 226.881ZM161.451 217.902H154.717V211.17H161.451V217.902ZM161.451 206.68H154.717V193.214H161.451V206.68Z" fill="black"/>
<path d="M131.622 228.503H184.546C185.057 228.5 185.56 228.365 186.004 228.111C186.447 227.857 186.818 227.492 187.079 227.052C187.341 226.612 187.484 226.112 187.494 225.601C187.505 225.09 187.384 224.584 187.141 224.133L160.692 174.992C160.439 174.521 160.062 174.127 159.603 173.853C159.144 173.579 158.619 173.434 158.084 173.434C157.549 173.434 157.024 173.579 156.565 173.853C156.106 174.127 155.729 174.521 155.476 174.992L129.014 224.133C128.771 224.585 128.649 225.092 128.661 225.604C128.672 226.117 128.816 226.618 129.079 227.058C129.342 227.498 129.714 227.863 130.16 228.116C130.606 228.369 131.109 228.503 131.622 228.503ZM161.451 219.524H154.717V212.792H161.451V219.524ZM161.451 208.302H154.717V194.836H161.451V208.302Z" fill="#464353"/>
<path d="M75.8498 76.7937C75.8141 77.4718 76.1515 78.0914 76.3494 78.7402C76.6767 79.9933 76.6441 81.3133 76.2553 82.5487C75.892 83.8464 75.2821 85.2186 75.746 86.4871C75.853 86.7855 76.0152 87.058 76.1125 87.3565C76.5148 88.5892 75.7687 89.8868 74.9512 90.8958L78.1596 93.1439C78.628 93.5322 79.1852 93.7985 79.7816 93.9192C80.3818 93.9906 81.0792 93.6694 81.2025 93.079C81.2447 92.8779 81.2025 92.667 81.2414 92.4627C81.2809 92.1984 81.3831 91.9474 81.5394 91.7306C81.6958 91.5139 81.9017 91.3378 82.14 91.2169C82.6219 90.9806 83.1593 90.8808 83.694 90.9282C85.6631 91.0353 87.3371 92.3296 89.1278 93.1601C90.3084 93.6714 91.5319 94.0774 92.7839 94.3734C93.4943 94.5583 94.2826 94.727 94.925 94.3734C95.5673 94.0198 95.8625 93.1991 95.8138 92.4562C95.7141 91.7173 95.4834 91.0021 95.1326 90.3443C94.7785 89.6872 94.5653 88.9635 94.5065 88.2194C94.5065 87.1294 95.1034 86.1367 95.3045 85.0661C95.5868 83.5447 95.0126 81.9972 94.3118 80.6153C93.6111 79.2333 92.7612 77.9032 92.4205 76.398C92.3529 75.9417 92.2343 75.4945 92.0669 75.0647C91.9046 74.7383 91.6848 74.4438 91.4181 74.1952C90.2146 73.0047 88.4984 72.4402 86.818 72.3169C85.1376 72.1936 83.4409 72.4694 81.7735 72.7581C81.1373 72.8489 80.5107 72.9977 79.9016 73.2025C79.0312 73.5484 78.2047 73.996 77.4394 74.5359C76.6803 75.0614 75.8984 75.8303 75.8498 76.7937Z" fill="#464353"/>
<g opacity="0.1">
<path opacity="0.1" d="M94.4968 87.5545C94.4968 87.6518 94.4968 87.7491 94.5163 87.8432C94.6168 86.8927 95.1164 86.0005 95.2948 85.05C95.3637 84.6692 95.3844 84.2812 95.3565 83.8951C95.3565 84.0638 95.324 84.2195 95.2948 84.4012C95.0905 85.4718 94.4838 86.4645 94.4968 87.5545Z" fill="black"/>
<path opacity="0.1" d="M76.5667 80.0379C76.6049 79.3815 76.5314 78.7233 76.3494 78.0915C76.1574 77.5992 76.0002 77.094 75.879 76.5797C75.879 76.6478 75.853 76.7127 75.8498 76.7808C75.8141 77.4589 76.1515 78.0785 76.3494 78.7273C76.4747 79.1537 76.5477 79.5938 76.5667 80.0379Z" fill="black"/>
<path opacity="0.1" d="M95.7847 92.2778C95.7621 92.5677 95.6716 92.8482 95.5205 93.0967C95.3695 93.3452 95.1622 93.5548 94.9153 93.7084C94.2665 94.062 93.4847 93.8933 92.7742 93.7084C91.5217 93.4127 90.2981 93.0056 89.1181 92.4919C87.3274 91.6647 85.6535 90.3703 83.6843 90.2632C83.1497 90.2158 82.6123 90.3156 82.1304 90.5519C81.8921 90.6728 81.6861 90.8489 81.5298 91.0656C81.3734 91.2824 81.2713 91.5334 81.2318 91.7977C81.2091 92.002 81.2318 92.2129 81.1929 92.414C81.0663 93.0045 80.3721 93.3256 79.772 93.2543C79.1756 93.1336 78.6184 92.8672 78.1499 92.4789L75.2659 90.4546C75.1589 90.6006 75.0518 90.7433 74.9415 90.8763L78.1499 93.1277C78.6184 93.516 79.1756 93.7824 79.772 93.9031C80.3721 93.9744 81.0696 93.6533 81.1929 93.0628C81.235 92.8617 81.1929 92.6509 81.2318 92.4465C81.2713 92.1822 81.3734 91.9312 81.5298 91.7145C81.6861 91.4977 81.8921 91.3216 82.1304 91.2008C82.6123 90.9644 83.1497 90.8646 83.6843 90.912C85.6535 91.0191 87.3274 92.3135 89.1181 93.1407C90.2981 93.6544 91.5217 94.0616 92.7742 94.3572C93.4847 94.5422 94.273 94.7108 94.9153 94.3572C95.5576 94.0036 95.8529 93.1829 95.8042 92.44C95.801 92.3848 95.7912 92.3329 95.7847 92.2778Z" fill="black"/>
<path opacity="0.1" d="M76.1125 87.3403C76.1525 87.4707 76.1818 87.6041 76.2001 87.7393C76.2503 87.3879 76.2204 87.0296 76.1125 86.6915C76.0152 86.393 75.853 86.1205 75.7459 85.822C75.6679 85.6054 75.6177 85.3798 75.5967 85.1505C75.5488 85.5962 75.5997 86.0471 75.7459 86.4709C75.853 86.7693 76.0152 87.0451 76.1125 87.3403Z" fill="black"/>
</g>
<path d="M79.9211 210.437C79.8989 210.529 79.8464 210.611 79.7719 210.67C79.693 210.711 79.6044 210.73 79.5156 210.725C78.3607 210.751 77.2058 210.725 76.0542 210.807C74.9642 210.901 73.8709 211.131 72.7842 211.008C72.4365 211.02 72.0936 210.924 71.803 210.733C71.5124 210.541 71.2884 210.265 71.1621 209.94C71.0935 209.799 71.0329 209.654 70.9804 209.506C70.681 208.741 70.5302 207.926 70.536 207.105C70.536 206.888 70.536 206.677 70.536 206.456C70.5218 206.219 70.4904 205.982 70.4419 205.749C70.3435 205.482 70.3552 205.187 70.4744 204.928C70.935 204.088 72.0477 203.919 72.9042 203.855C74.8883 203.705 76.8836 203.852 78.8246 204.289C78.9771 205.035 79.149 205.775 79.3307 206.515C79.4648 207.058 79.6075 207.598 79.7589 208.137C79.8605 208.47 79.9428 208.809 80.0055 209.152C80.0857 209.581 80.0567 210.022 79.9211 210.437Z" fill="#464353"/>
<path opacity="0.06" d="M79.9211 210.437C79.8989 210.529 79.8464 210.611 79.7719 210.67C79.693 210.711 79.6045 210.731 79.5156 210.726C78.3607 210.752 77.2059 210.726 76.0542 210.807C74.9642 210.901 73.8709 211.131 72.7842 211.008C72.4365 211.02 72.0936 210.924 71.803 210.733C71.5124 210.542 71.2884 210.265 71.1621 209.941C71.0936 209.799 71.0329 209.654 70.9805 209.506H71.3957C72.7615 209.506 74.1305 209.457 75.4962 209.457C75.9082 209.457 76.3235 209.438 76.7322 209.389C77.141 209.34 77.4751 209.272 77.8482 209.227C78.4067 209.173 78.9676 209.151 79.5286 209.159H79.9893C80.0736 209.584 80.0502 210.023 79.9211 210.437Z" fill="black"/>
<path d="M103.814 204.413C103.452 204.835 102.99 205.159 102.471 205.357C100.161 206.33 97.491 205.892 95.1066 205.1C94.5733 204.902 94.0256 204.745 93.4684 204.63C92.96 204.559 92.4473 204.523 91.9339 204.523C91.5673 204.523 91.2008 204.494 90.8342 204.471C89.9064 204.413 88.9818 204.322 88.0605 204.231C87.4182 204.184 86.7805 204.087 86.153 203.942C85.9746 203.896 85.8032 203.827 85.6437 203.735C85.5075 203.675 85.3913 203.577 85.3085 203.454C85.2258 203.33 85.18 203.186 85.1765 203.037C85.2025 202.625 85.6307 202.388 86.007 202.21C89.3452 200.766 92.972 200.14 96.573 199.637C96.9393 199.576 97.2959 199.467 97.6338 199.313C98.0393 199.151 98.0815 199.417 98.2826 199.715C98.3776 199.853 98.4863 199.982 98.607 200.098C98.9981 200.451 99.4574 200.721 99.9565 200.889C100.832 201.214 101.77 201.301 102.646 201.61C102.911 201.702 103.164 201.824 103.402 201.973C103.611 202.087 103.792 202.248 103.93 202.442C104.068 202.637 104.159 202.86 104.197 203.096C104.236 203.331 104.219 203.572 104.15 203.801C104.081 204.029 103.96 204.238 103.798 204.413H103.814Z" fill="#464353"/>
<path opacity="0.06" d="M103.814 204.413C103.452 204.835 102.991 205.159 102.471 205.357C100.161 206.33 97.4912 205.892 95.1068 205.1C94.5734 204.902 94.0258 204.745 93.4685 204.63C92.9602 204.559 92.4474 204.523 91.9341 204.523C91.5675 204.523 91.2009 204.494 90.8344 204.471C91.1328 204.189 91.4378 203.913 91.7492 203.647C91.9749 203.436 92.2349 203.265 92.518 203.141C92.8705 203.025 93.2463 203 93.6113 203.066C95.4669 203.323 97.1344 204.623 99.0062 204.51C99.8783 204.41 100.722 204.137 101.488 203.709C102.111 203.455 102.666 203.059 103.11 202.554C103.244 202.379 103.346 202.183 103.412 201.973C103.621 202.087 103.802 202.248 103.94 202.442C104.078 202.637 104.169 202.86 104.207 203.096C104.245 203.331 104.229 203.572 104.16 203.801C104.091 204.029 103.97 204.238 103.807 204.413H103.814Z" fill="black"/>
<path d="M103.162 148.034C102.837 148.683 102.422 149.386 101.721 149.588C100.703 149.88 99.723 148.965 99.2785 148.005C98.6727 146.595 98.5585 145.023 98.9541 143.541C99.139 142.791 99.4213 142.071 99.5802 141.318C99.6949 140.685 99.7643 140.044 99.7878 139.401C99.8837 138.442 99.8608 137.474 99.7197 136.52C99.1974 133.734 96.8 131.654 96.002 128.916C95.5997 127.551 95.6192 126.097 95.6419 124.673C95.6344 124.313 95.6714 123.953 95.7522 123.603C95.7763 123.507 95.8089 123.413 95.8495 123.324C96.3848 122.136 97.9711 121.974 99.0741 121.283C99.684 120.903 101.069 119.68 101.582 120.796C101.692 121.045 101.775 121.305 101.828 121.572C102.039 122.564 101.955 123.729 102.007 124.667C102.205 128.209 103.087 131.745 102.678 135.268C102.581 135.869 102.533 136.476 102.536 137.085C102.623 138.61 103.577 139.93 104.015 141.39C104.69 143.586 104.148 145.977 103.162 148.034Z" fill="#FBBEBE"/>
<path opacity="0.1" d="M101.845 121.578C101.604 121.491 101.34 121.491 101.099 121.578L98.9023 122.227C98.1327 122.432 97.3826 122.705 96.6607 123.041C96.3455 123.196 96.0467 123.382 95.7686 123.596C95.7927 123.5 95.8253 123.407 95.8659 123.317C96.4012 122.13 97.9875 121.968 99.0905 121.277C99.7004 120.897 101.086 119.674 101.598 120.79C101.71 121.043 101.792 121.307 101.845 121.578Z" fill="black"/>
<path d="M101.987 121.332C101.855 121.251 101.706 121.203 101.551 121.191C101.397 121.178 101.242 121.202 101.098 121.26L98.9022 121.909C98.1326 122.114 97.3825 122.387 96.6606 122.723C96.2775 122.91 95.919 123.143 95.5933 123.418C94.5681 121.637 94.2956 119.525 94.1075 117.481C94.0037 116.29 93.9258 115.097 93.8804 113.913C93.8295 113.06 93.8469 112.206 93.9323 111.356C94.0556 110.383 94.3378 109.432 94.513 108.466C94.6173 107.9 94.6845 107.328 94.7141 106.753C94.7983 105.497 94.7406 104.236 94.5422 102.993C94.3536 101.672 94.0519 100.369 93.6403 99.1C93.4327 98.5193 93.1829 97.9581 92.9558 97.3872L92.878 97.186C92.4679 96.1396 92.1329 95.0652 91.8756 93.9711C91.7717 93.5235 91.7653 93.0531 91.4214 92.7481C91.7442 92.7093 92.0697 92.6962 92.3946 92.7092C92.4595 92.7092 92.5244 92.7092 92.5893 92.7092C93.922 92.793 95.2059 93.2419 96.3005 94.0068C97.7102 95.0239 98.7817 96.4413 99.3759 98.0749C100.06 99.9013 100.174 101.887 100.262 103.836C100.437 107.669 100.545 111.503 100.586 115.34C100.586 116.076 100.618 116.861 101.04 117.468C101.158 117.618 101.267 117.775 101.364 117.938C101.517 118.263 101.494 118.623 101.618 118.951C101.708 119.147 101.811 119.338 101.926 119.522C102.071 119.799 102.152 120.106 102.163 120.42C102.173 120.733 102.113 121.045 101.987 121.332Z" fill="#464353"/>
<path d="M80.3949 83.2528C80.0704 83.1457 79.746 83.0322 79.4216 82.9283L80.0964 82.9803C80.2089 83.0557 80.3095 83.1476 80.3949 83.2528Z" fill="#FBBEBE"/>
<path d="M93.6792 94.9607C93.6143 95.1813 93.5495 95.4019 93.4781 95.6095C93.3134 96.1425 93.1129 96.6639 92.8779 97.1699C92.5103 98.0012 91.9898 98.7561 91.3435 99.3953C91.1301 99.6201 90.8683 99.7931 90.5779 99.9014C90.3323 99.9643 90.0783 99.9883 89.8253 99.9728C88.9602 99.9728 88.0951 99.9598 87.23 99.9339C86.5565 99.9413 85.8842 99.875 85.2252 99.736C84.4997 99.5381 83.81 99.2272 83.1814 98.8146C80.7581 97.3159 78.7662 95.032 77.913 92.3265C77.8059 91.9826 77.7313 91.5706 77.9682 91.3014C78.2012 91.1112 78.4947 91.0111 78.7954 91.0191H78.8343C79.5318 90.9284 80.2038 90.6978 80.81 90.3411C81.2027 90.1401 81.5193 89.8167 81.7118 89.4198C81.8432 88.9493 81.8331 88.4506 81.6826 87.9859L80.9624 84.7159C80.8874 84.1922 80.6908 83.6933 80.3882 83.2593C80.5991 83.3339 80.81 83.402 81.0371 83.4604C83.0419 84.0022 85.2349 83.6745 87.2008 84.385C87.9534 84.6607 88.7061 85.1571 88.9331 85.9292C89.3127 87.2268 88.0443 88.5731 88.4076 89.8707C88.6509 90.7531 89.5495 91.2624 90.354 91.6744L90.8958 91.9502L92.3978 92.7125L92.6054 92.8163L92.6379 92.8326C93.1115 93.0726 93.6111 93.3711 93.7766 93.8804C93.8471 94.2424 93.8134 94.6171 93.6792 94.9607Z" fill="#FBBEBE"/>
<path opacity="0.1" d="M97.637 102.578C97.582 103.407 97.3799 104.22 97.0401 104.978C96.3888 106.29 96.0396 107.731 96.0182 109.196C95.7684 113.575 94.1042 118.788 96.4886 122.467C96.547 122.558 96.6054 122.649 96.6605 122.743C96.2774 122.929 95.9189 123.162 95.5932 123.437C94.5681 121.656 94.2956 119.544 94.1074 117.5C94.0036 116.31 93.9258 115.116 93.8804 113.932C93.8295 113.08 93.8468 112.225 93.9323 111.376C94.0555 110.402 94.3378 109.452 94.513 108.485C94.6173 107.919 94.6845 107.347 94.7141 106.772C94.7982 105.516 94.7405 104.255 94.5422 103.012C94.3535 101.691 94.0518 100.389 93.6403 99.1194C93.4327 98.5388 93.1829 97.9775 92.9558 97.4066L92.8779 97.2054C92.5103 98.0368 91.9898 98.7917 91.3435 99.4309C91.1301 99.6556 90.8683 99.8287 90.5779 99.937C90.3323 99.9998 90.0783 100.024 89.8253 100.008C88.9602 100.008 88.0951 99.9953 87.23 99.9694C86.5565 99.9769 85.8842 99.9105 85.2252 99.7715C84.4997 99.5736 83.81 99.2627 83.1814 98.8502C80.7581 97.3514 78.7662 95.0676 77.913 92.362C77.8059 92.0182 77.7313 91.6062 77.9682 91.3369C78.2012 91.1468 78.4947 91.0466 78.7954 91.0547H78.8343L81.754 94.6653C82.0889 95.0475 82.3724 95.4717 82.5975 95.9273C82.641 96.0801 82.7319 96.2153 82.857 96.3133C82.9585 96.3597 83.0701 96.3798 83.1814 96.3717C85.9226 96.3717 89.5755 96.3717 92.3167 96.3717C92.3257 95.886 92.1853 95.4093 91.9144 95.006C91.8301 95.0254 91.7166 95.0319 91.8917 94.98C91.7332 93.9269 91.3929 92.9093 90.8861 91.9727C90.8558 91.9084 90.8222 91.8455 90.7855 91.7846C90.5677 91.4636 90.4053 91.1083 90.3054 90.7335C90.6515 90.6232 91.0233 90.6232 91.3694 90.7335C91.7685 90.9054 91.9761 91.3369 92.1513 91.7359C92.3005 92.0603 92.4497 92.4074 92.5827 92.7481C92.5827 92.7838 92.6152 92.8227 92.6281 92.8584C92.9111 93.5296 93.0926 94.2392 93.1667 94.9638C93.1861 95.2298 93.251 95.5672 93.4716 95.6548C93.5063 95.6706 93.5438 95.6794 93.5819 95.6807C93.8103 95.5971 94.0584 95.5833 94.2947 95.6411C94.5309 95.6988 94.7447 95.8256 94.9087 96.0051C95.2279 96.3707 95.4509 96.8099 95.5576 97.2833C95.663 97.7565 95.8174 98.2175 96.0182 98.6588C96.4367 99.4568 95.7976 99.8137 96.5535 100.304C96.907 100.498 97.2111 100.771 97.4424 101.102C97.6562 101.562 97.7241 102.077 97.637 102.578Z" fill="black"/>
<path opacity="0.1" d="M78.7955 204.302C78.9479 205.048 79.1199 205.788 79.3015 206.528L79.2821 206.573C77.7995 205.924 76.2813 205.246 74.6625 205.104C73.1605 204.974 71.5287 205.379 70.5068 206.469C70.4926 206.232 70.4612 205.995 70.4128 205.762C70.3144 205.495 70.326 205.2 70.4452 204.941C70.9059 204.101 72.0186 203.932 72.875 203.868C74.8591 203.718 76.8544 203.865 78.7955 204.302Z" fill="black"/>
<path opacity="0.1" d="M91.5738 95.5997C91.7263 95.5997 91.6712 95.5997 91.5966 95.6257C91.5219 95.6516 91.3987 95.6516 91.5738 95.5997Z" fill="black"/>
<path opacity="0.1" d="M98.6232 200.098C97.1765 201.02 95.817 202.072 94.5616 203.241C94.1971 203.632 93.7624 203.95 93.2802 204.179C92.7823 204.339 92.2562 204.393 91.736 204.338C89.6952 204.255 87.661 204.054 85.6437 203.735C85.5075 203.675 85.3913 203.577 85.3085 203.454C85.2258 203.33 85.18 203.186 85.1765 203.037C85.2025 202.625 85.6307 202.388 86.007 202.21C89.3452 200.766 92.972 200.14 96.573 199.637C96.9393 199.576 97.2959 199.467 97.6338 199.313C98.0393 199.151 98.0815 199.417 98.2826 199.715C98.3827 199.854 98.4969 199.982 98.6232 200.098Z" fill="black"/>
<path d="M74.8214 91.8365C75.2982 92.2615 75.8433 92.6054 76.3266 93.0174C77.6243 94.1171 78.4418 95.6548 79.2463 97.1536C78.7692 97.3261 78.2532 97.3609 77.7573 97.2542C77.5022 98.6934 77.5452 100.17 77.8838 101.591C77.2347 102.037 76.7305 102.663 76.4337 103.392C76.203 104.132 76.0444 104.892 75.96 105.663C75.4929 109.039 75.0236 112.415 74.5521 115.791C74.5426 116.121 74.4291 116.44 74.2277 116.702C74.1377 116.775 74.0551 116.857 73.9812 116.946C73.8819 117.164 73.8427 117.405 73.8676 117.643C73.8481 117.88 73.6924 118.162 73.4556 118.13C73.3405 118.102 73.2385 118.036 73.1669 117.942C72.93 117.691 72.7131 117.422 72.5181 117.137C70.6041 120.809 69.6827 124.767 68.6706 128.783C67.9472 131.645 67.2237 134.538 67.188 137.49C67.1978 138.887 67.2855 140.282 67.4508 141.669L67.7363 144.517C67.9666 146.807 68.197 149.101 68.4468 151.391C68.609 152.845 68.7712 154.311 69.2935 155.68C70.072 157.759 69.2091 160.105 69.54 162.304C69.7995 164.027 70.3153 165.808 69.7963 167.469C69.5887 168.134 69.2253 168.741 68.9528 169.383C68.2845 170.979 68.2164 172.754 68.158 174.483C68.053 175.998 68.1095 177.521 68.3267 179.024C68.6057 180.578 69.2318 182.1 69.1085 183.67C68.9366 185.905 67.2886 187.816 67.0875 190.048C66.9285 191.829 67.7103 193.548 68.5506 195.128C69.1702 196.293 68.3073 197.798 67.9796 199.079C67.3308 201.59 68.4111 204.218 69.7347 206.447C69.7684 206.523 69.8282 206.585 69.9033 206.622C70.0558 206.677 70.1921 206.528 70.2926 206.401C71.2886 205.123 73.0533 204.64 74.6721 204.779C76.2909 204.919 77.8059 205.587 79.2917 206.249L81.3971 201.561C81.754 200.766 82.1173 199.907 81.9389 199.053C81.8124 198.443 81.4198 197.928 81.1408 197.37C80.492 196.053 80.4596 194.518 80.4531 193.042L80.4142 184.705C82.0557 182.642 83.0581 180.189 83.6907 177.626C84.6612 181.231 84.728 185.019 83.8853 188.656C83.7294 189.206 83.6209 189.768 83.5609 190.337C83.4344 192.65 85.2478 194.606 85.7312 196.87C85.778 197.043 85.7913 197.224 85.7701 197.402C85.7157 197.621 85.6247 197.83 85.5009 198.018C84.6315 199.595 84.7255 201.506 84.8521 203.303C87.127 203.699 89.4255 203.945 91.7328 204.04C92.2529 204.091 92.7782 204.037 93.2769 203.881C93.7593 203.65 94.194 203.331 94.5583 202.94C96.0313 201.554 97.6485 200.331 99.3823 199.29C98.4141 197.684 97.059 196.345 95.4407 195.397C95.963 194.628 97.1536 194.69 97.8478 194.074C98.1964 193.729 98.4241 193.28 98.4967 192.796C98.7562 191.524 98.435 190.2 98.1139 188.951C97.491 186.492 96.8649 184.024 95.843 181.701C95.3809 180.746 94.9736 179.766 94.6232 178.765C93.7733 175.968 94.3669 172.926 93.7246 170.068C93.517 169.153 93.1829 168.209 93.4164 167.297C93.7733 165.892 95.3629 165.059 95.7132 163.651C96.9687 158.639 97.1925 153.445 97.9062 148.329C98.0659 147.352 98.1515 146.364 98.1625 145.374C98.1625 144.339 97.9776 143.314 97.903 142.282C97.611 138.152 98.9314 134.032 98.594 129.906C98.3779 127.363 97.5402 124.912 96.1544 122.769C93.77 119.087 95.4342 113.877 95.684 109.497C95.7028 108.033 96.051 106.592 96.7027 105.28C97.0454 104.522 97.2487 103.709 97.3028 102.879C97.4029 102.368 97.3393 101.838 97.1212 101.364C96.8929 101.032 96.5894 100.759 96.2355 100.566C95.4797 100.073 96.1188 99.7164 95.7003 98.9184C95.499 98.4773 95.3446 98.0162 95.2396 97.5429C95.1334 97.0703 94.9103 96.6319 94.5908 96.268C94.4267 96.0884 94.213 95.9617 93.9767 95.9039C93.7405 95.8461 93.4924 95.8599 93.264 95.9435C92.9558 95.9435 92.8714 95.5348 92.8455 95.2266C92.7579 94.0977 92.2907 93.0369 91.8333 91.9987C91.6581 91.5997 91.4505 91.1683 91.0515 90.9963C90.704 90.8876 90.3317 90.8876 89.9842 90.9963C90.0846 91.3725 90.2481 91.729 90.4676 92.0507C91.0299 93.0372 91.4039 94.1196 91.5705 95.2428C91.2461 95.3402 91.895 95.2428 91.5705 95.2428C91.861 95.6476 92.0104 96.1366 91.9955 96.6345C89.2575 96.6345 85.6047 96.6345 82.8634 96.6345C82.7521 96.6433 82.6403 96.6232 82.539 96.5761C82.414 96.4774 82.3223 96.3426 82.2763 96.1901C82.0532 95.7344 81.7695 95.311 81.4328 94.9314L78.2212 90.9704C78.1498 90.8669 78.0554 90.7814 77.9454 90.7206C77.8128 90.6831 77.6725 90.6831 77.5399 90.7206C76.4986 90.8731 75.7297 91.3078 74.8214 91.8365Z" fill="#272925"/>
<path opacity="0.1" d="M86.3477 145.507C86.9014 145.499 87.447 145.64 87.9275 145.915C88.166 146.056 88.3639 146.256 88.5015 146.496C88.6392 146.736 88.7119 147.008 88.7126 147.284C88.6769 147.898 88.2065 148.384 87.8659 148.906C87.6551 149.225 87.4871 149.569 87.3663 149.932C87.3291 150.014 87.3199 150.106 87.3404 150.194C87.3793 150.318 87.5123 150.379 87.6258 150.434C88.0386 150.621 88.3911 150.919 88.6438 151.295C88.8965 151.671 89.0394 152.11 89.0565 152.563C89.0273 153.828 87.7913 154.853 87.8594 156.131C87.8903 156.397 87.9358 156.661 87.9957 156.923C88.1441 158.012 87.9927 159.121 87.5577 160.131C87.1652 161.15 86.6299 162.107 86.2082 163.115C85.0695 165.857 84.823 168.893 84.9105 171.875C84.9787 173.899 84.2617 175.826 83.6129 177.753C83.9796 173.871 84.0771 169.969 83.9049 166.074C83.8595 165.017 83.7265 164.017 83.7751 162.957C83.853 161.273 84.7938 159.742 85.0338 158.09C85.1701 157.146 85.0792 156.186 85.1019 155.232C85.1474 153.286 85.6761 151.365 85.7118 149.413C85.7573 148.034 85.6307 146.613 86.3477 145.507Z" fill="black"/>
<path d="M72.8101 92.5309C72.1652 92.8524 71.5617 93.2511 71.0129 93.7182C70.4395 94.288 69.9599 94.9449 69.592 95.6647C69.144 96.4806 68.7422 97.3211 68.3884 98.1821C67.931 99.2981 67.5515 100.534 67.8661 101.699C68.1516 102.753 68.9594 103.574 69.5174 104.511C70.0754 105.449 70.403 106.549 70.8312 107.577C71.4022 108.949 72.184 110.227 72.7485 111.603C73.3129 112.978 73.6536 114.523 73.2967 115.953C73.1929 116.375 72.5084 116.703 72.5084 117.134C72.5084 117.848 73.54 118.623 74.2245 118.831C75.0128 119.074 75.8725 118.711 76.5181 118.182C77.7022 117.244 78.4224 115.84 78.9544 114.425C79.8108 112.154 80.2682 109.744 80.6802 107.35C80.9787 105.592 81.2577 103.83 81.4167 102.059C81.5626 100.463 81.6081 98.8147 81.1863 97.2835C80.7928 95.8781 80.0273 94.6049 78.9706 93.5982C78.1272 92.7872 76.7452 91.6972 75.5189 91.668C74.5489 91.6647 73.6406 92.0735 72.8101 92.5309Z" fill="#464353"/>
<path d="M82.033 131.638C81.9978 131.86 81.9149 132.071 81.79 132.258C81.6651 132.444 81.5012 132.602 81.3096 132.719C80.9268 132.951 80.5097 133.122 80.0736 133.225C79.2042 133.478 78.2829 133.711 77.4037 133.487C76.7128 133.262 76.0749 132.899 75.5287 132.42L65.7056 124.9C64.9165 124.341 64.1909 123.697 63.5418 122.98C63.1691 122.517 62.8267 122.03 62.5167 121.523C62.1061 120.943 61.7847 120.304 61.5629 119.629C61.4837 119.331 61.4444 119.025 61.4461 118.717C61.4435 118.426 61.5149 118.139 61.6537 117.883C61.8905 117.488 62.3966 117.406 62.8119 117.296C64.2056 116.936 65.6522 116.826 67.0843 116.972C67.2101 116.966 67.3345 117.001 67.4386 117.072C67.5428 117.142 67.6211 117.245 67.6618 117.364C67.8791 117.763 68.0673 118.179 68.2619 118.594C68.5607 119.302 68.95 119.968 69.4201 120.576C69.873 121.068 70.3551 121.533 70.8637 121.968C71.9018 122.941 72.7517 124.109 73.858 125.004C75.1394 126.039 76.6965 126.659 78.1564 127.421C79.6162 128.183 81.0566 129.173 81.7897 130.649C81.9598 130.95 82.044 131.292 82.033 131.638Z" fill="#FBBEBE"/>
<path opacity="0.1" d="M93.4036 79.1749C93.4039 81.2231 92.6219 83.194 91.2173 84.6847C89.8128 86.1754 87.8918 87.0733 85.8472 87.1946C83.8027 87.316 81.789 86.6518 80.2179 85.3377C78.6468 84.0237 77.6371 82.1591 77.3951 80.1253C77.1532 78.0915 77.6973 76.042 78.9162 74.3961C80.1352 72.7501 81.9368 71.632 83.9528 71.2703C85.9688 70.9086 88.0468 71.3307 89.7618 72.4503C91.4769 73.5698 92.6996 75.3023 93.1797 77.2934C93.3286 77.9095 93.4038 78.5411 93.4036 79.1749Z" fill="black"/>
<path d="M93.4036 78.8505C93.4039 80.8986 92.6219 82.8696 91.2173 84.3603C89.8128 85.851 87.8918 86.7488 85.8472 86.8702C83.8027 86.9916 81.789 86.3273 80.2179 85.0133C78.6468 83.6992 77.6371 81.8346 77.3951 79.8008C77.1532 77.767 77.6973 75.7176 78.9162 74.0716C80.1352 72.4257 81.9368 71.3075 83.9528 70.9458C85.9688 70.5842 88.0468 71.0062 89.7618 72.1258C91.4769 73.2454 92.6996 74.9778 93.1797 76.9689C93.3286 77.585 93.4038 78.2166 93.4036 78.8505Z" fill="#FBBEBE"/>
<path opacity="0.1" d="M68.2619 118.581C67.8921 118.818 67.3438 118.74 66.8864 118.636C65.0827 118.234 63.0909 117.945 61.4461 118.717C61.4435 118.426 61.5149 118.139 61.6537 117.883C61.8905 117.488 62.3966 117.406 62.8119 117.296C64.2056 116.936 65.6522 116.826 67.0843 116.972C67.2101 116.966 67.3345 117.001 67.4386 117.072C67.5428 117.142 67.6211 117.245 67.6618 117.364C67.8791 117.75 68.0673 118.166 68.2619 118.581Z" fill="black"/>
<path d="M64.8719 107.658C64.4728 108.955 64.1452 110.289 63.3634 111.389C63.1049 111.678 62.9103 112.018 62.7924 112.388C62.7835 112.661 62.7388 112.931 62.6594 113.192C62.5491 113.413 62.3155 113.559 62.2214 113.786C62.0819 114.11 62.2636 114.529 62.0787 114.834C61.9921 114.956 61.8883 115.065 61.7705 115.158C61.3293 115.567 61.219 116.219 61.2093 116.822C61.1996 117.426 61.2579 118.042 61.0601 118.61C62.7729 117.588 64.953 117.893 66.8994 118.328C67.4412 118.448 68.1127 118.538 68.463 118.104C68.8134 117.669 68.6123 117.098 68.6609 116.576C68.7258 115.895 69.193 115.33 69.4817 114.71C69.8061 114.013 69.9164 113.234 70.1662 112.508C70.682 110.98 71.7882 109.734 72.4987 108.29C72.7617 107.794 72.9186 107.248 72.9593 106.688C72.9348 105.962 72.7451 105.25 72.4046 104.608C71.7295 103.113 70.9263 101.68 70.004 100.323C69.592 99.7163 68.8815 98.5939 68.2424 99.5639C67.7234 100.346 67.399 101.342 67.0162 102.198C66.1913 103.973 65.4752 105.796 64.8719 107.658Z" fill="#464353"/>
<path d="M94.1432 95.0645C93.1691 95.1316 92.1924 94.9803 91.2843 94.6217C90.3762 94.2631 89.5596 93.7061 88.8943 92.9916C88.7822 92.8896 88.7013 92.758 88.6607 92.612C88.6422 92.4222 88.6954 92.2324 88.8099 92.08C89.1992 91.4798 89.8707 91.084 90.1822 90.4385C90.4936 89.7929 90.3865 89.05 90.4157 88.3428C90.4676 87.0744 90.9672 85.8189 91.0094 84.5699C91.0244 84.2503 91.0005 83.93 90.938 83.6162C90.7887 83.1501 90.6972 82.6674 90.6655 82.179C90.7077 81.2285 91.5641 80.4889 91.7069 79.5513C91.8918 78.3575 90.9023 77.3194 89.9064 76.6317C89.147 76.105 88.3226 75.6786 87.4539 75.3632C86.9203 75.1721 86.3678 75.0383 85.8059 74.9642C84.7582 74.8227 83.6918 74.9419 82.7013 75.3113C82.2913 75.466 81.9031 75.6732 81.5464 75.9277C81.334 76.0621 81.157 76.2457 81.0306 76.463C80.9266 76.7076 80.88 76.9729 80.8944 77.2383C80.8749 78.5651 81.0241 79.9763 80.3915 81.1312C80.0671 81.7508 79.5156 82.2537 79.2464 82.909C79.1362 83.1816 79.0673 83.4692 79.042 83.7622C79.0095 84.066 78.9933 84.3714 78.9933 84.677C78.9739 86.3866 78.9933 88.1903 79.8627 89.6729C80.1695 90.1211 80.448 90.5881 80.6965 91.0711C80.817 91.3154 80.8728 91.5865 80.8586 91.8586C80.8444 92.1307 80.7607 92.3945 80.6154 92.625C80.4397 92.8353 80.2176 93.0019 79.9666 93.1116C79.3225 93.4207 78.6215 93.5935 77.9075 93.6191C77.1936 93.6448 76.482 93.5228 75.8174 93.2608C76.5946 92.5243 77.1285 91.568 77.3476 90.5199C77.5668 89.4718 77.4607 88.3817 77.0436 87.3955C76.8093 86.9972 76.6571 86.556 76.596 86.0979C76.6285 85.6852 76.7386 85.2824 76.9204 84.9106C77.365 83.6915 77.434 82.3671 77.1183 81.1085C76.9204 80.3364 76.5765 79.5903 76.5149 78.7955C76.4634 78.1955 76.4896 77.5915 76.5927 76.9982C76.7705 75.9369 77.2382 74.9453 77.944 74.1329C78.6499 73.3206 79.5665 72.7191 80.5927 72.3949C80.7581 72.3397 80.9171 72.2878 81.0987 72.2424C81.8858 72.0677 82.6899 71.9817 83.4961 71.9861C85.2966 71.9278 87.123 71.8758 88.8586 72.3462C89.8775 72.613 90.8255 73.1003 91.6355 73.7736C92.2105 74.257 92.6695 74.8635 92.9786 75.5481C93.1474 75.9426 93.2746 76.3536 93.3581 76.7744C93.4327 77.1215 93.4879 77.4719 93.543 77.8222C93.9356 80.3169 94.3281 82.8603 93.9096 85.3518C93.7442 86.325 93.4554 87.2982 93.3257 88.2909C93.011 90.578 93.5787 92.8521 94.1432 95.0645Z" fill="#464353"/>
<path d="M82.6171 98.2697C82.9503 98.2697 83.2205 97.9995 83.2205 97.6663C83.2205 97.333 82.9503 97.0629 82.6171 97.0629C82.2838 97.0629 82.0137 97.333 82.0137 97.6663C82.0137 97.9995 82.2838 98.2697 82.6171 98.2697Z" fill="white"/>
<path d="M92.8002 97.9841C93.1334 97.9841 93.4036 97.714 93.4036 97.3807C93.4036 97.0475 93.1334 96.7773 92.8002 96.7773C92.4669 96.7773 92.1968 97.0475 92.1968 97.3807C92.1968 97.714 92.4669 97.9841 92.8002 97.9841Z" fill="white"/>
<path opacity="0.1" d="M82.617 67.1718L81.3193 64.7225C81.4016 64.6246 81.4916 64.5334 81.5886 64.45C81.776 64.3345 81.9954 64.2822 82.2147 64.3008L82.617 67.1718Z" fill="black"/>
<path opacity="0.1" d="M86.1952 64.1873L84.7256 66.3609L83.8887 63.9765C84.2458 63.823 84.6323 63.7499 85.0209 63.7623C85.4332 63.8376 85.8302 63.9812 86.1952 64.1873Z" fill="black"/>
<g opacity="0.1">
<path opacity="0.1" d="M80.6154 91.9825C80.4397 92.1928 80.2176 92.3594 79.9666 92.4692C78.8161 93.0196 77.5039 93.1292 76.278 92.7773C76.1355 92.9507 75.9816 93.1143 75.8174 93.2672C76.482 93.5292 77.1936 93.6512 77.9075 93.6255C78.6215 93.5998 79.3225 93.427 79.9666 93.118C80.2176 93.0082 80.4397 92.8416 80.6154 92.6314C80.727 92.4694 80.8032 92.2857 80.839 92.0923C80.8747 91.8989 80.8693 91.7001 80.823 91.5089C80.7906 91.6805 80.7196 91.8424 80.6154 91.9825Z" fill="black"/>
<path opacity="0.1" d="M77.0956 81.1182C77.2015 81.5433 77.2635 81.9781 77.2805 82.4159C77.3179 81.7614 77.2555 81.1051 77.0956 80.4694C76.8977 79.6973 76.5538 78.9512 76.4922 78.1564C76.4922 78.0558 76.4922 77.9553 76.4759 77.8514C76.4604 78.1694 76.4658 78.488 76.4922 78.8052C76.5538 79.6 76.8977 80.3461 77.0956 81.1182Z" fill="black"/>
<path opacity="0.1" d="M93.8869 85.3614C94.0246 84.5035 94.0832 83.6347 94.062 82.7661C94.0507 83.4183 93.9921 84.0688 93.8869 84.7126C93.7214 85.6858 93.4327 86.659 93.3029 87.6517C93.236 88.1842 93.2111 88.7211 93.2283 89.2575C93.2372 88.9375 93.2621 88.6181 93.3029 88.3005C93.4327 87.3078 93.7214 86.3443 93.8869 85.3614Z" fill="black"/>
<path opacity="0.1" d="M77.0307 86.7532C76.8608 86.4337 76.7239 86.0979 76.622 85.7507C76.5944 85.8676 76.5813 85.9875 76.583 86.1076C76.6441 86.5657 76.7963 87.0069 77.0307 87.4052C77.2689 87.949 77.4063 88.5316 77.4362 89.1246C77.4949 88.3129 77.3558 87.4992 77.0307 86.7532Z" fill="black"/>
<path opacity="0.1" d="M90.938 83.6031C90.9665 83.7511 90.9871 83.9005 90.9996 84.0508C90.9996 84.0021 90.9996 83.9567 90.9996 83.908C91.0147 83.5884 90.9907 83.2681 90.9283 82.9543C90.8569 82.6136 90.7401 82.2762 90.685 81.9324C90.6689 82.0093 90.6591 82.0874 90.6558 82.1659C90.6906 82.6547 90.7854 83.1374 90.938 83.6031Z" fill="black"/>
<path opacity="0.1" d="M88.8943 92.3296C88.8443 92.2775 88.7977 92.2222 88.7548 92.1642C88.675 92.2942 88.6418 92.4475 88.6607 92.5989C88.7013 92.7449 88.7822 92.8765 88.8943 92.9785C89.5596 93.693 90.3762 94.2499 91.2843 94.6086C92.1924 94.9672 93.1691 95.1185 94.1432 95.0514C94.0881 94.8373 94.0329 94.6264 93.981 94.4026C93.0336 94.4462 92.088 94.2833 91.2097 93.9254C90.3314 93.5675 89.5414 93.023 88.8943 92.3296Z" fill="black"/>
<path opacity="0.1" d="M91.7004 78.9348C91.6989 78.9229 91.6989 78.911 91.7004 78.8991C91.8853 77.7053 90.8959 76.6672 89.9 75.9794C89.1405 75.4528 88.3162 75.0264 87.4474 74.711C86.9138 74.5199 86.3614 74.3861 85.7994 74.312C84.7518 74.1704 83.6854 74.2897 82.6949 74.6591C82.2849 74.8138 81.8967 75.021 81.54 75.2755C81.3275 75.4098 81.1506 75.5935 81.0242 75.8107C80.9202 76.0554 80.8736 76.3206 80.8879 76.5861C80.8879 76.8099 80.8879 77.0338 80.8879 77.2608V77.2349C80.8736 76.9694 80.9202 76.7042 81.0242 76.4596C81.1506 76.2423 81.3275 76.0587 81.54 75.9243C81.8967 75.6698 82.2849 75.4626 82.6949 75.3079C83.6854 74.9385 84.7518 74.8193 85.7994 74.9608C86.3614 75.0349 86.9138 75.1687 87.4474 75.3598C88.3162 75.6752 89.1405 76.1016 89.9 76.6283C90.7272 77.1862 91.5415 77.9908 91.7004 78.9348Z" fill="black"/>
<path opacity="0.1" d="M80.3916 80.4888C80.0672 81.1085 79.5157 81.6113 79.2464 82.2666C79.1363 82.5392 79.0674 82.8268 79.0421 83.1198C79.0096 83.4236 78.9934 83.729 78.9934 84.0346C78.9934 84.3104 78.9934 84.5893 78.9934 84.8683C78.9934 84.8067 78.9934 84.7451 78.9934 84.6834C78.9934 84.3778 79.0096 84.0725 79.0421 83.7686C79.0674 83.4756 79.1363 83.188 79.2464 82.9154C79.5157 82.2666 80.0542 81.7573 80.3916 81.1376C80.9139 80.1644 80.9042 79.0452 80.8944 77.9325C80.9375 78.8128 80.7649 79.6904 80.3916 80.4888Z" fill="black"/>
</g>
<path opacity="0.1" d="M93.3355 76.7971C93.2908 76.8606 93.2385 76.9184 93.1797 76.9691C93.0653 77.0633 92.9373 77.1398 92.8002 77.1962C91.8562 77.6049 91.8951 76.2716 91.402 75.8142C91.0858 75.5809 90.6977 75.4661 90.3055 75.4898C89.3561 75.4422 88.4055 75.4 87.4539 75.3632C85.8676 75.3048 84.2845 75.2757 82.7014 75.3113C81.9423 75.3243 81.1853 75.3557 80.4305 75.4054C79.5546 75.4638 78.6138 75.5774 77.8677 75.9926C77.6123 76.1331 77.3811 76.3139 77.1832 76.5279C77.0048 76.7225 76.8166 76.9691 76.5701 77.0145C76.7479 75.9531 77.2155 74.9615 77.9214 74.1492C78.6272 73.3368 79.5438 72.7353 80.57 72.4111C82.2313 71.1737 84.3066 70.6263 86.3621 70.8832C88.4176 71.1401 90.2943 72.1816 91.5999 73.7899C92.1749 74.2733 92.6339 74.8797 92.9429 75.5644C93.1167 75.9604 93.2482 76.3736 93.3355 76.7971Z" fill="black"/>
<path d="M92.8001 76.5473C91.8561 76.956 91.895 75.6227 91.4019 75.1653C91.0857 74.9321 90.6977 74.8172 90.3054 74.8409C87.0181 74.6247 83.721 74.5965 80.4305 74.7565C79.2593 74.8344 77.9747 75.0096 77.1864 75.879C76.9852 76.0996 76.7744 76.3851 76.4727 76.3753C76.3721 75.7265 76.3007 75.0518 76.2521 74.3867C76.2227 74.1376 76.2358 73.8853 76.291 73.6406C76.3721 73.3616 76.557 73.1248 76.6511 72.8523C76.7437 72.5057 76.7766 72.1458 76.7484 71.7882C76.7627 70.4647 77.1183 69.1673 77.781 68.0215C78.4437 66.8757 79.3909 65.9205 80.531 65.2481C80.8172 65.1082 81.0825 64.9291 81.3193 64.7161C81.4016 64.6182 81.4916 64.527 81.5886 64.4436C81.776 64.3282 81.9954 64.2759 82.2147 64.2944C82.3704 64.2944 82.5391 64.2944 82.6754 64.2944C83.0949 64.2482 83.505 64.1388 83.8919 63.97C84.2491 63.8165 84.6356 63.7435 85.0241 63.7559C85.4365 63.8311 85.8334 63.9748 86.1984 64.1808C86.3739 64.2654 86.5576 64.3317 86.7467 64.3787C87.0419 64.4469 87.3468 64.4436 87.642 64.502C88.1202 64.6237 88.5743 64.8255 88.9851 65.0989C89.4753 65.3633 89.929 65.6905 90.3346 66.0721C90.7757 66.5762 91.1288 67.1508 91.3792 67.772C91.8089 68.6302 92.1356 69.5362 92.3524 70.4711C92.6152 71.8142 92.4855 73.2675 93.1083 74.4873C93.4879 75.2529 93.835 76.1028 92.8001 76.5473Z" fill="#FED253"/>
<path opacity="0.1" d="M76.3558 75.5287C76.3558 75.5287 83.0808 69.4103 93.0953 74.4841C93.0953 74.4841 81.7897 71.9115 76.3558 75.5287Z" fill="black"/>
<path d="M3.07861 106.792C2.16378 105.293 0.788294 103.921 1.0024 102.221C3.51981 102.51 5.90745 101.896 8.21399 100.829C10.5205 99.7619 12.6616 98.3766 14.8222 97.0174C15.6721 96.4821 16.5188 95.9566 17.3623 95.47C18.6989 94.7044 20.0257 93.8479 21.385 93.0985C23.3314 92.028 25.3168 91.1521 27.5033 90.9834C27.8993 90.9525 28.2968 90.9427 28.6939 90.9542C31.3864 91.0061 34.1763 91.7295 36.5445 90.5227L36.6905 90.4449C38.0336 89.7085 39.01 88.4563 40.1617 87.4409C40.9896 86.7248 41.8911 86.0984 42.851 85.5723C44.5996 84.599 46.4941 83.8205 48.2816 82.9024C48.7391 82.6667 49.1736 82.3887 49.5792 82.0719L49.8842 81.8286L49.9523 81.7702C50.0269 81.7086 50.1015 81.6469 50.1729 81.5821L50.3124 81.4588L50.4551 81.329L50.5654 81.2252L50.7439 81.0565L50.7633 81.0338L51.0456 80.7548L51.1591 80.6413L51.357 80.4369L51.4738 80.3201C51.6717 80.1157 51.8696 79.9081 52.0707 79.707C52.2718 79.5058 52.5443 79.2333 52.7876 79.0095L53.0212 78.8019L53.0893 78.7435L53.2775 78.5878L53.3651 78.5132L53.55 78.3704L53.6408 78.299C53.7317 78.2309 53.8257 78.166 53.9198 78.1012C54.0064 78.0412 54.0975 77.988 54.1923 77.9422L53.5857 76.4726L55.331 75.7524L79.4021 134.162L77.6535 134.882L63.8856 101.468L63.7883 101.566C60.599 104.713 56.6923 107.037 52.4048 108.339H52.3789C49.9815 109.063 47.2987 109.575 45.2808 110.918C44.5653 111.383 43.9436 111.979 43.4479 112.673C42.9743 113.348 42.6434 114.117 42.1503 114.766C42.0562 114.886 41.9524 115.003 41.8486 115.113C41.2586 115.698 40.6059 116.216 39.9022 116.657L39.594 116.868C37.5038 118.339 35.3263 119.681 33.0734 120.887C31.7733 121.564 30.4177 122.128 29.0215 122.574C28.0061 122.899 26.9583 123.135 25.9429 123.457C25.2599 123.663 24.5965 123.931 23.9607 124.255C22.2414 125.153 20.921 126.561 19.6721 128.063C18.5788 129.38 17.5407 130.775 16.3404 131.976C15.5878 132.722 14.4426 133.429 13.5343 132.991L13.3494 132.884C13.3786 132.835 13.4013 132.787 13.4272 132.735C14.1442 131.233 13.2618 129.377 12.0744 128.174C11.9512 128.047 11.8246 127.924 11.6949 127.807C11.5651 127.69 11.3315 127.483 11.1466 127.32C10.1312 126.448 9.05096 125.637 8.347 124.511C7.80969 123.565 7.44499 122.532 7.26996 121.458C6.94556 119.93 6.7282 118.357 5.89772 117.056C5.35271 116.196 4.54169 115.463 3.95127 114.639C3.57805 114.152 3.33271 113.578 3.23757 112.972C3.10457 111.917 3.59442 110.886 3.77933 109.835C3.83434 109.548 3.85719 109.257 3.84746 108.965C3.77969 108.187 3.51511 107.439 3.07861 106.792Z" fill="url(#paint0_linear_14_454)"/>
<path d="M77.0417 134.381L78.7603 133.673L55.0903 76.245L53.3717 76.9534L77.0417 134.381Z" fill="#D6D8E1"/>
<path d="M6.47849 116.852C7.29276 118.133 7.51011 119.677 7.82479 121.179C7.99932 122.235 8.35841 123.252 8.8856 124.183C9.57983 125.289 10.6406 126.088 11.6366 126.944C11.8182 127.103 11.9999 127.268 12.1751 127.424C12.3016 127.538 12.4281 127.661 12.5482 127.781C13.716 128.965 14.5822 130.791 13.8782 132.267C13.8566 132.318 13.8317 132.367 13.8036 132.413C13.8606 132.452 13.9202 132.487 13.982 132.517C14.8774 132.952 16.0031 132.258 16.7428 131.521C17.9236 130.341 18.9455 128.972 20.0193 127.677C21.2455 126.198 22.5464 124.813 24.2366 123.93C24.8605 123.611 25.512 123.348 26.183 123.145C27.179 122.821 28.2106 122.59 29.2098 122.279C30.5822 121.84 31.9148 121.285 33.1935 120.621C35.4123 119.434 37.5573 118.113 39.6168 116.667L39.9217 116.459C40.6133 116.026 41.2551 115.518 41.8357 114.944C41.9395 114.834 42.0401 114.72 42.1342 114.6C42.6338 113.951 42.9614 113.209 43.4318 112.544C43.9196 111.86 44.5315 111.275 45.2355 110.818C47.2209 109.497 49.8551 108.991 52.2135 108.281H52.2395C56.454 106.999 60.2945 104.713 63.4315 101.621C63.6915 101.403 63.8859 101.118 63.9928 100.797C64.0933 100.339 63.8468 99.8851 63.61 99.4828C63.3342 99.0092 63.065 98.5356 62.7989 98.0554C61.6026 95.878 60.5345 93.6325 59.6003 91.3305C59.3959 90.8244 59.198 90.3216 59.0066 89.8122C58.5157 88.5146 58.068 87.1986 57.6636 85.8642C57.5306 85.423 57.4008 84.9786 57.2775 84.5341C57.2548 84.4498 57.2289 84.3589 57.2062 84.2616C56.6676 82.0978 55.9475 77.0338 53.7285 78.5488C53.0686 79.0206 52.4549 79.554 51.8956 80.1416C51.4641 80.5796 51.0424 81.0305 50.598 81.4652C50.236 81.8212 49.8536 82.156 49.4528 82.4677C49.0461 82.7791 48.6117 83.0527 48.1552 83.2852C46.3936 84.187 44.5315 84.9429 42.8154 85.9096C41.8704 86.426 40.983 87.0415 40.1683 87.7458C39.0361 88.7449 38.0758 89.9777 36.7555 90.7011L36.6127 90.779C34.2835 91.9631 31.5422 91.2526 28.8918 91.2007C28.5023 91.1909 28.1125 91.2006 27.724 91.2299C25.5731 91.3921 23.6072 92.255 21.7062 93.3094C20.3696 94.049 19.0655 94.886 17.7517 95.6418C16.9212 96.1187 16.0907 96.6345 15.2537 97.1633C13.1321 98.4999 10.9813 99.9013 8.76557 100.913C6.49471 101.945 4.14925 102.561 1.67401 102.279C1.46315 103.95 2.81268 105.299 3.71454 106.772C4.14769 107.405 4.41027 108.139 4.4769 108.904C4.48882 109.189 4.46814 109.476 4.41526 109.757C4.23359 110.792 3.76644 111.804 3.88323 112.845C3.97529 113.439 4.21513 114 4.58071 114.477C5.14518 115.285 5.93998 116.008 6.47849 116.852Z" fill="#F86D70"/>
<path d="M72.4339 123.609C72.4339 123.609 75.2757 126.088 78.1564 127.408C81.0372 128.728 79.1297 133.465 79.1297 133.465C79.1297 133.465 76.077 134.165 73.9391 131.194C71.8013 128.222 72.4339 123.609 72.4339 123.609Z" fill="#FBBEBE"/>
<path d="M225.567 165.798C225.567 165.798 218.041 175.702 211.796 175.784C205.551 175.865 201.886 179.955 204.851 182.512C207.816 185.068 240.127 181.052 240.127 181.052C240.127 181.052 240.432 168.88 237.632 167.102C234.832 165.325 225.567 165.798 225.567 165.798Z" fill="#444176"/>
<path d="M306.491 177.688C306.491 177.688 307.643 185.532 304.084 190.881C300.525 196.231 310.514 198.294 310.514 198.294C310.514 198.294 317.771 200.315 318.299 193.146C318.828 185.976 318.656 180.494 317.975 179.91C317.294 179.326 316.726 175.294 316.726 175.294L306.491 177.688Z" fill="#444176"/>
<path d="M192.559 192.504C192.559 192.504 192.296 167.132 217.402 156.819L223.231 145.727L226.028 138.915C227.041 136.447 228.634 134.261 230.672 132.54C232.71 130.82 235.133 129.617 237.736 129.033L242.258 128.018L243.656 122.127C244.401 118.978 246.052 116.116 248.404 113.894C250.757 111.672 253.709 110.188 256.895 109.624C259.645 109.113 262.436 108.853 265.233 108.845C266.47 108.864 267.682 109.202 268.75 109.828C269.818 110.453 270.706 111.344 271.328 112.414C271.328 112.414 295.114 112.151 296.168 125.101C296.168 125.101 298.549 136.991 301.985 139.106C301.985 139.106 307.798 137.786 313.612 146.243L319.954 167.914C319.954 167.914 336.602 183.505 331.58 197.759C331.58 197.759 324.71 207.537 289.826 200.929C289.826 200.929 252.564 212.283 232.73 196.711C232.727 196.731 199.696 203.073 192.559 192.504Z" fill="#A8A8A8"/>
<path opacity="0.1" d="M209.207 188.539C209.207 188.539 214.495 181.14 214.229 175.852C213.963 170.564 215.475 157.685 215.475 157.685" stroke="black" stroke-width="0.324408" stroke-miterlimit="10"/>
<path opacity="0.1" d="M228.5 168.718C228.5 168.718 233.784 158.94 233.256 153.656C233.256 153.656 238.806 143.599 243.033 144.404" stroke="black" stroke-width="0.324408" stroke-miterlimit="10"/>
<path opacity="0.1" d="M257.57 140.968C257.57 140.968 272.104 135.684 272.898 131.457" stroke="black" stroke-width="0.324408" stroke-miterlimit="10"/>
<path opacity="0.1" d="M262.855 153.127C262.855 153.127 278.183 146.256 278.183 144.404H285.842C285.842 144.404 296.944 158.94 295.623 165.282" stroke="black" stroke-width="0.324408" stroke-miterlimit="10"/>
<path opacity="0.1" d="M280.827 163.696C280.827 163.696 266.027 162.639 260.74 166.869C255.452 171.099 245.94 173.211 245.94 173.211C245.94 173.211 240.39 185.104 238.274 187.216C236.159 189.328 232.724 196.731 232.724 196.731" stroke="black" stroke-width="0.324408" stroke-miterlimit="10"/>
<path opacity="0.1" d="M280.827 177.704C280.827 177.704 282.41 183.251 284.525 186.424C286.64 189.597 289.81 200.958 289.81 200.958" stroke="black" stroke-width="0.324408" stroke-miterlimit="10"/>
<path opacity="0.1" d="M305.667 193.824C305.667 193.824 309.021 203.157 311.97 203.248" stroke="black" stroke-width="0.324408" stroke-miterlimit="10"/>
<path opacity="0.1" d="M283.695 153.763C283.695 153.763 292.408 156.118 296.052 161.824C299.695 167.531 310.822 172.705 310.822 172.705" stroke="black" stroke-width="0.324408" stroke-miterlimit="10"/>
<path opacity="0.1" d="M287.432 125.65C287.432 125.65 287.432 137.805 290.867 137.805C294.303 137.805 301.969 139.126 301.969 139.126" stroke="black" stroke-width="0.324408" stroke-miterlimit="10"/>
<path opacity="0.1" d="M270.595 111.214C270.595 111.214 269.716 132.212 265.223 137.649" stroke="black" stroke-width="0.324408" stroke-miterlimit="10"/>
<g opacity="0.05">
<path opacity="0.05" d="M319.409 167.66L313.067 145.99C307.253 137.533 301.44 138.853 301.44 138.853C298.004 136.738 295.626 124.845 295.626 124.845C294.569 111.895 270.783 112.161 270.783 112.161C270.16 111.089 269.27 110.197 268.199 109.571C267.129 108.946 265.914 108.609 264.675 108.592C263.552 108.592 262.404 108.628 261.255 108.722C261.904 108.787 262.526 108.879 263.121 108.998L264.97 112.171C264.97 112.171 288.752 111.904 289.81 124.855C289.81 124.855 292.191 136.748 295.626 138.863C295.626 138.863 301.44 137.539 307.253 146L313.595 167.67C313.595 167.67 330.244 183.261 325.222 197.516C325.222 197.516 321.832 202.34 307.73 202.924C326.744 203.621 331.036 197.516 331.036 197.516C336.057 183.252 319.409 167.66 319.409 167.66Z" fill="black"/>
<path opacity="0.05" d="M226.385 196.465C220.791 197.471 215.134 198.09 209.454 198.317C216.075 198.57 222.962 197.853 227.4 197.243C227.056 196.98 226.719 196.727 226.385 196.465Z" fill="black"/>
<path opacity="0.05" d="M283.468 200.695C275.332 202.977 266.957 204.301 258.514 204.64C270.696 205.081 282.235 202.541 286.991 201.321C285.842 201.13 284.678 200.912 283.468 200.695Z" fill="black"/>
</g>
<path d="M72.2943 241.914C72.2943 241.914 79.5643 241.69 81.754 240.13C83.9438 238.57 92.9331 236.707 93.4781 239.209C94.0231 241.71 104.401 251.65 96.1934 251.718C87.9859 251.786 77.128 250.44 74.9415 249.106C72.755 247.773 72.2943 241.914 72.2943 241.914Z" fill="#A8A8A8"/>
<path opacity="0.2" d="M96.3427 250.845C88.1351 250.913 77.274 249.567 75.0875 248.25C73.4232 247.235 72.7582 243.595 72.5376 241.917H72.2943C72.2943 241.917 72.755 247.78 74.9415 249.11C77.128 250.44 87.9892 251.786 96.1934 251.721C98.5649 251.702 99.3824 250.858 99.3369 249.609C99.0093 250.362 98.1042 250.832 96.3427 250.845Z" fill="black"/>
<path d="M249.531 223.682C249.531 223.682 240.97 221.97 238.69 219.686C236.409 217.402 226.135 213.412 224.993 216.263C223.851 219.115 209.587 228.818 219.287 230.537C228.986 232.257 242.112 232.808 244.967 231.679C247.822 230.55 249.531 223.682 249.531 223.682Z" fill="#A8A8A8"/>
<path opacity="0.2" d="M219.287 229.46C228.99 231.17 242.112 231.731 244.967 230.599C247.137 229.729 248.649 225.554 249.246 223.611L249.531 223.673C249.531 223.673 247.818 230.518 244.967 231.66C242.115 232.802 228.99 232.231 219.287 230.518C216.487 230.025 215.686 228.863 215.988 227.397C216.228 228.364 217.204 229.1 219.287 229.46Z" fill="black"/>
<path opacity="0.1" d="M167.557 37.2582H165.519C165.898 37.2582 166.261 37.1078 166.529 36.8402C166.796 36.5725 166.947 36.2094 166.947 35.8308C166.947 35.4523 166.796 35.0892 166.529 34.8215C166.261 34.5538 165.898 34.4034 165.519 34.4034H149.014C148.635 34.4034 148.272 34.5538 148.004 34.8215C147.736 35.0892 147.586 35.4523 147.586 35.8308C147.586 36.2094 147.736 36.5725 148.004 36.8402C148.272 37.1078 148.635 37.2582 149.014 37.2582H151.051C150.684 37.2757 150.339 37.4336 150.086 37.699C149.833 37.9645 149.691 38.3172 149.691 38.684C149.691 39.0508 149.833 39.4035 150.086 39.669C150.339 39.9345 150.684 40.0923 151.051 40.1098H148.199C147.821 40.1098 147.458 40.2602 147.19 40.5279C146.922 40.7955 146.772 41.1586 146.772 41.5372C146.772 41.9157 146.922 42.2788 147.19 42.5465C147.458 42.8142 147.821 42.9646 148.199 42.9646H164.705C165.084 42.9646 165.447 42.8142 165.714 42.5465C165.982 42.2788 166.133 41.9157 166.133 41.5372C166.133 41.1586 165.982 40.7955 165.714 40.5279C165.447 40.2602 165.084 40.1098 164.705 40.1098H167.557C167.75 40.119 167.942 40.0889 168.123 40.0214C168.304 39.9539 168.47 39.8504 168.61 39.7171C168.749 39.5838 168.861 39.4235 168.937 39.2459C169.013 39.0683 169.052 38.8772 169.052 38.684C169.052 38.4908 169.013 38.2997 168.937 38.1221C168.861 37.9445 168.749 37.7842 168.61 37.6509C168.47 37.5176 168.304 37.4141 168.123 37.3466C167.942 37.2791 167.75 37.249 167.557 37.2582Z" fill="#272925"/>
<path opacity="0.1" d="M231.666 87.4799H229.629C229.995 87.4624 230.341 87.3046 230.594 87.0391C230.847 86.7736 230.988 86.4209 230.988 86.0541C230.988 85.6873 230.847 85.3346 230.594 85.0691C230.341 84.8037 229.995 84.6458 229.629 84.6283H213.107C212.914 84.6191 212.721 84.6492 212.54 84.7167C212.359 84.7842 212.194 84.8877 212.054 85.021C211.914 85.1543 211.803 85.3146 211.727 85.4922C211.651 85.6698 211.611 85.8609 211.611 86.0541C211.611 86.2473 211.651 86.4385 211.727 86.616C211.803 86.7936 211.914 86.9539 212.054 87.0872C212.194 87.2205 212.359 87.324 212.54 87.3915C212.721 87.459 212.914 87.4891 213.107 87.4799H215.144C214.778 87.4974 214.432 87.6552 214.179 87.9207C213.926 88.1861 213.785 88.5389 213.785 88.9056C213.785 89.2724 213.926 89.6252 214.179 89.8906C214.432 90.1561 214.778 90.3139 215.144 90.3314H212.293C211.914 90.3314 211.551 90.4818 211.283 90.7495C211.015 91.0172 210.865 91.3803 210.865 91.7588C210.865 92.1374 211.015 92.5005 211.283 92.7681C211.551 93.0358 211.914 93.1862 212.293 93.1862H228.795C229.174 93.1862 229.537 93.0358 229.804 92.7681C230.072 92.5005 230.223 92.1374 230.223 91.7588C230.223 91.3803 230.072 91.0172 229.804 90.7495C229.537 90.4818 229.174 90.3314 228.795 90.3314H231.666C231.859 90.3406 232.052 90.3106 232.233 90.2431C232.414 90.1756 232.579 90.072 232.719 89.9387C232.859 89.8054 232.97 89.6451 233.046 89.4676C233.122 89.29 233.162 89.0988 233.162 88.9056C233.162 88.7125 233.122 88.5213 233.046 88.3437C232.97 88.1662 232.859 88.0059 232.719 87.8726C232.579 87.7393 232.414 87.6357 232.233 87.5682C232.052 87.5007 231.859 87.4707 231.666 87.4799Z" fill="#272925"/>
<path opacity="0.1" d="M136.67 78.1887H134.633C134.826 78.1979 135.018 78.1679 135.199 78.1004C135.38 78.0329 135.546 77.9294 135.686 77.7961C135.825 77.6628 135.937 77.5025 136.013 77.3249C136.089 77.1473 136.128 76.9561 136.128 76.763C136.128 76.5698 136.089 76.3786 136.013 76.201C135.937 76.0235 135.825 75.8632 135.686 75.7299C135.546 75.5966 135.38 75.493 135.199 75.4255C135.018 75.358 134.826 75.328 134.633 75.3372H118.123C117.93 75.328 117.738 75.358 117.557 75.4255C117.376 75.493 117.21 75.5966 117.07 75.7299C116.931 75.8632 116.819 76.0235 116.743 76.201C116.667 76.3786 116.628 76.5698 116.628 76.763C116.628 76.9561 116.667 77.1473 116.743 77.3249C116.819 77.5025 116.931 77.6628 117.07 77.7961C117.21 77.9294 117.376 78.0329 117.557 78.1004C117.738 78.1679 117.93 78.1979 118.123 78.1887H120.161C119.968 78.1795 119.775 78.2096 119.594 78.2771C119.413 78.3446 119.248 78.4481 119.108 78.5814C118.968 78.7147 118.857 78.875 118.781 79.0526C118.705 79.2302 118.665 79.4213 118.665 79.6145C118.665 79.8077 118.705 79.9989 118.781 80.1764C118.857 80.354 118.968 80.5143 119.108 80.6476C119.248 80.7809 119.413 80.8844 119.594 80.9519C119.775 81.0194 119.968 81.0495 120.161 81.0403H117.306C116.927 81.0403 116.564 81.1907 116.297 81.4584C116.029 81.726 115.879 82.0891 115.879 82.4677C115.879 82.8463 116.029 83.2093 116.297 83.477C116.564 83.7447 116.927 83.8951 117.306 83.8951H133.812C134.19 83.8951 134.553 83.7447 134.821 83.477C135.089 83.2093 135.239 82.8463 135.239 82.4677C135.239 82.0891 135.089 81.726 134.821 81.4584C134.553 81.1907 134.19 81.0403 133.812 81.0403H136.663C136.856 81.0495 137.049 81.0194 137.23 80.9519C137.411 80.8844 137.577 80.7809 137.716 80.6476C137.856 80.5143 137.967 80.354 138.044 80.1764C138.12 79.9989 138.159 79.8077 138.159 79.6145C138.159 79.4213 138.12 79.2302 138.044 79.0526C137.967 78.875 137.856 78.7147 137.716 78.5814C137.577 78.4481 137.411 78.3446 137.23 78.2771C137.049 78.2096 136.856 78.1795 136.663 78.1887H136.67Z" fill="#272925"/>
</g>
<defs>
<linearGradient id="paint0_linear_14_454" x1="-235279" y1="21260.8" x2="-254243" y2="21260.8" gradientUnits="userSpaceOnUse">
<stop stop-color="#808080" stop-opacity="0.25"/>
<stop offset="0.54" stop-color="#808080" stop-opacity="0.12"/>
<stop offset="1" stop-color="#808080" stop-opacity="0.1"/>
</linearGradient>
<clipPath id="clip0_14_454">
<rect width="334.867" height="270.112" fill="white"/>
</clipPath>
</defs>
</svg>
