<svg width="317" height="144" viewBox="0 0 317 144" fill="none" xmlns="http://www.w3.org/2000/svg">
<g clip-path="url(#clip0_14_683)">
<path d="M286.595 57.6772H277.014V90.8424H286.595V57.6772Z" fill="#F2F2F2"/>
<path d="M292.922 84.6034L269.619 56.8811L222.844 57.3087L194.469 84.9462L195.043 85.3147H194.838V142.801H292.859V85.3147L292.922 84.6034Z" fill="#F2F2F2"/>
<path d="M269.644 56.9402L240.532 91.0704V142.801H292.86V84.5777L269.644 56.9402Z" fill="#E6E6E6"/>
<path d="M272.223 114.193H261.537V123.639H272.223V114.193Z" fill="#3F3D56"/>
<path d="M272.223 97.844H261.537V107.14H272.223V97.844Z" fill="#3F3D56"/>
<path d="M272.223 114.193H261.537V123.639H272.223V114.193Z" fill="white"/>
<path d="M272.223 97.844H261.537V107.14H272.223V97.844Z" fill="white"/>
<path d="M224.732 111.687H214.045V121.132H224.732V111.687Z" fill="white"/>
<path d="M224.732 95.3374H214.045V104.633H224.732V95.3374Z" fill="white"/>
<path d="M210.987 57.6772H201.406V90.8424H210.987V57.6772Z" fill="#F2F2F2"/>
<path d="M217.314 84.6034L194.012 56.8811L147.237 57.3087L118.862 84.9462L119.435 85.3147H119.23V142.801H217.252V85.3147L217.314 84.6034Z" fill="#F2F2F2"/>
<path d="M194.036 56.9402L164.925 91.0704V142.801H217.252V84.5777L194.036 56.9402Z" fill="#E6E6E6"/>
<path d="M196.616 114.193H185.929V123.639H196.616V114.193Z" fill="#3F3D56"/>
<path d="M196.616 97.844H185.929V107.14H196.616V97.844Z" fill="#3F3D56"/>
<path d="M196.616 114.193H185.929V123.639H196.616V114.193Z" fill="white"/>
<path d="M196.616 97.844H185.929V107.14H196.616V97.844Z" fill="white"/>
<path d="M149.124 111.687H138.437V121.132H149.124V111.687Z" fill="white"/>
<path d="M149.124 95.3374H138.437V104.633H149.124V95.3374Z" fill="white"/>
<path d="M133.57 29.0549H120.767V73.3716H133.57V29.0549Z" fill="#F2F2F2"/>
<path d="M142.024 65.0348L110.886 27.9915L48.3833 28.5626L10.4679 65.4932L11.2338 65.9856H10.9603V142.801H141.94V65.9856L142.024 65.0348Z" fill="#F2F2F2"/>
<path d="M110.919 28.0701L72.0186 73.6765V142.801H141.94V65.0006L110.919 28.0701Z" fill="#E6E6E6"/>
<path d="M114.366 104.574H100.086V117.196H114.366V104.574Z" fill="#3F3D56"/>
<path d="M114.366 82.7273H100.086V95.1488H114.366V82.7273Z" fill="#3F3D56"/>
<path d="M114.366 104.574H100.086V117.196H114.366V104.574Z" fill="white"/>
<path d="M114.366 82.7273H100.086V95.1488H114.366V82.7273Z" fill="white"/>
<path d="M50.9052 101.225H36.6254V113.847H50.9052V101.225Z" fill="white"/>
<path d="M50.9052 79.3782H36.6254V91.7997H50.9052V79.3782Z" fill="white"/>
<path d="M306.227 142.517H0V143.152H306.227V142.517Z" fill="#3F3D56"/>
<path d="M48.2467 130.835C53.3522 130.835 57.491 122.39 57.491 111.973C57.491 101.556 53.3522 93.1111 48.2467 93.1111C43.1412 93.1111 39.0024 101.556 39.0024 111.973C39.0024 122.39 43.1412 130.835 48.2467 130.835Z" fill="#3F3D56"/>
<path d="M49.1004 142.847C45.3979 120.633 49.0631 98.4999 49.1005 98.2791L49.8207 98.4011C49.7834 98.6208 46.1393 120.638 49.8209 142.727L49.1004 142.847Z" fill="#272925"/>
<path d="M56.3854 107.917L48.0261 112.388L48.3707 113.033L56.73 108.561L56.3854 107.917Z" fill="#272925"/>
<path d="M39.5483 110.157L39.2035 110.801L47.5618 115.275L47.9066 114.631L39.5483 110.157Z" fill="#272925"/>
<path d="M26.0355 119.775C36.0212 119.775 44.1162 103.258 44.1162 82.8836C44.1162 62.5088 36.0212 45.9917 26.0355 45.9917C16.0498 45.9917 7.95483 62.5088 7.95483 82.8836C7.95483 103.258 16.0498 119.775 26.0355 119.775Z" fill="#272925"/>
<path d="M28.0494 143.212C20.8175 99.8221 27.9764 56.5898 28.0496 56.1582L28.7697 56.2802C28.6968 56.7107 21.5589 99.8268 28.7699 143.093L28.0494 143.212Z" fill="#3F3D56"/>
<path d="M42.1187 75.2584L25.7684 84.0039L26.113 84.6481L42.4632 75.9026L42.1187 75.2584Z" fill="#3F3D56"/>
<path d="M8.85769 79.6393L8.51294 80.2834L24.8607 89.0334L25.2055 88.3893L8.85769 79.6393Z" fill="#3F3D56"/>
<path d="M68.8581 111.163C82.5227 111.163 93.6 88.5605 93.6 60.6792C93.6 32.7978 82.5227 10.1956 68.8581 10.1956C55.1934 10.1956 44.1161 32.7978 44.1161 60.6792C44.1161 88.5605 55.1934 111.163 68.8581 111.163Z" fill="#272925"/>
<path d="M71.7468 143.212C61.8543 83.8581 71.6469 24.7205 71.747 24.1301L72.4672 24.2521C72.3673 24.8414 62.5957 83.8627 72.4674 143.093L71.7468 143.212Z" fill="#3F3D56"/>
<path d="M90.9303 50.3634L68.5564 62.3308L68.901 62.975L91.2749 51.0076L90.9303 50.3634Z" fill="#3F3D56"/>
<path d="M45.2881 56.3586L44.9434 57.0027L67.3141 68.976L67.6589 68.3319L45.2881 56.3586Z" fill="#3F3D56"/>
<path d="M276.708 130.835C281.814 130.835 285.952 122.39 285.952 111.973C285.952 101.556 281.814 93.1111 276.708 93.1111C271.603 93.1111 267.464 101.556 267.464 111.973C267.464 122.39 271.603 130.835 276.708 130.835Z" fill="#3F3D56"/>
<path d="M275.854 142.847C279.557 120.633 275.892 98.4999 275.854 98.2791L275.134 98.4011C275.171 98.6208 278.815 120.638 275.134 142.727L275.854 142.847Z" fill="#272925"/>
<path d="M268.569 107.917L268.225 108.562L276.584 113.033L276.929 112.389L268.569 107.917Z" fill="#272925"/>
<path d="M285.407 110.157L277.048 114.631L277.393 115.275L285.751 110.801L285.407 110.157Z" fill="#272925"/>
<path d="M298.919 119.775C308.905 119.775 317 103.258 317 82.8836C317 62.5088 308.905 45.9917 298.919 45.9917C288.934 45.9917 280.839 62.5088 280.839 82.8836C280.839 103.258 288.934 119.775 298.919 119.775Z" fill="#272925"/>
<path d="M296.905 143.212C304.137 99.8221 296.978 56.5898 296.905 56.1582L296.185 56.2802C296.258 56.7107 303.396 99.8268 296.185 143.093L296.905 143.212Z" fill="#3F3D56"/>
<path d="M282.836 75.2584L282.491 75.9026L298.842 84.6481L299.186 84.0039L282.836 75.2584Z" fill="#3F3D56"/>
<path d="M316.097 79.6394L299.749 88.3894L300.094 89.0335L316.442 80.2835L316.097 79.6394Z" fill="#3F3D56"/>
<path d="M256.097 111.163C269.761 111.163 280.839 88.5605 280.839 60.6792C280.839 32.7978 269.761 10.1956 256.097 10.1956C242.432 10.1956 231.355 32.7978 231.355 60.6792C231.355 88.5605 242.432 111.163 256.097 111.163Z" fill="#272925"/>
<path d="M253.208 143.212C263.1 83.8581 253.308 24.7205 253.208 24.1301L252.488 24.2521C252.587 24.8414 262.359 83.8627 252.487 143.093L253.208 143.212Z" fill="#3F3D56"/>
<path d="M234.025 50.3634L233.68 51.0076L256.054 62.975L256.398 62.3308L234.025 50.3634Z" fill="#3F3D56"/>
<path d="M279.667 56.3584L257.296 68.3318L257.641 68.9759L280.011 57.0026L279.667 56.3584Z" fill="#3F3D56"/>
<path d="M187.305 32.2336L190.23 29.8946C187.958 29.6439 187.024 30.883 186.642 31.8637C184.867 31.1266 182.935 32.0925 182.935 32.0925L188.786 34.2168C188.491 33.4283 187.977 32.7404 187.305 32.2336Z" fill="#3F3D56"/>
<path d="M115.827 11.5844L118.752 9.2454C116.48 8.99475 115.546 10.2338 115.164 11.2145C113.389 10.4775 111.457 11.4434 111.457 11.4434L117.309 13.5676C117.013 12.7792 116.5 12.0912 115.827 11.5844Z" fill="#3F3D56"/>
<path d="M232.416 2.37176L235.34 0.0327565C233.068 -0.217893 232.135 1.02114 231.753 2.00185C229.978 1.26483 228.046 2.23072 228.046 2.23072L233.897 4.35495C233.602 3.56651 233.088 2.87856 232.416 2.37176Z" fill="#3F3D56"/>
<path d="M238.32 138.842C237.543 138.842 236.779 139.047 236.106 139.436C235.423 138.818 234.575 138.412 233.665 138.267C232.755 138.121 231.822 138.243 230.98 138.618C230.138 138.992 229.423 139.603 228.921 140.376C228.42 141.149 228.153 142.051 228.155 142.972H242.752C242.672 141.851 242.171 140.802 241.349 140.035C240.526 139.269 239.444 138.843 238.32 138.842Z" fill="#3F3D56"/>
<path d="M89.964 138.842C89.1866 138.842 88.4229 139.047 87.7499 139.436C87.0664 138.818 86.2182 138.412 85.3083 138.267C84.3984 138.121 83.4658 138.243 82.6238 138.618C81.7818 138.992 81.0667 139.603 80.5651 140.376C80.0635 141.149 79.7971 142.051 79.7982 142.972H94.3954C94.3159 141.851 93.8145 140.802 92.9922 140.035C92.17 139.269 91.0879 138.843 89.964 138.842Z" fill="#3F3D56"/>
<path d="M165.889 138.842C165.112 138.842 164.348 139.047 163.675 139.436C162.992 138.818 162.144 138.412 161.234 138.267C160.324 138.121 159.391 138.243 158.549 138.618C157.707 138.992 156.992 139.603 156.49 140.376C155.989 141.149 155.723 142.051 155.724 142.972H170.321C170.241 141.851 169.74 140.802 168.918 140.035C168.095 139.269 167.013 138.843 165.889 138.842Z" fill="#3F3D56"/>
<path d="M149.868 128.415H107.754V129.773H114.322V142.679H115.68V129.773H141.262V142.679H142.621V129.773H149.868V128.415Z" fill="#3F3D56"/>
<path d="M149.951 124.351H107.837V125.709H149.951V124.351Z" fill="#3F3D56"/>
<path d="M149.951 120.954H107.837V122.313H149.951V120.954Z" fill="#3F3D56"/>
<path d="M149.951 117.558H107.837V118.916H149.951V117.558Z" fill="#3F3D56"/>
<path d="M215.628 128.415H173.514V129.773H180.082V142.679H181.44V129.773H207.022V142.679H208.381V129.773H215.628V128.415Z" fill="#3F3D56"/>
<path d="M215.711 124.351H173.597V125.709H215.711V124.351Z" fill="#3F3D56"/>
<path d="M215.711 120.954H173.597V122.313H215.711V120.954Z" fill="#3F3D56"/>
<path d="M215.711 117.558H173.597V118.916H215.711V117.558Z" fill="#3F3D56"/>
</g>
<defs>
<clipPath id="clip0_14_683">
<rect width="317" height="143.212" fill="white"/>
</clipPath>
</defs>
</svg>
